<mxfile host="app.diagrams.net" agent="Mozilla/5.0 (Windows NT 10.0; Win64; x64) AppleWebKit/537.36 (KHTML, like Gecko) Chrome/129.0.0.0 Safari/537.36" version="24.7.17">
  <diagram name="Page-1" id="OYYt3hwwHSqlz-7H41EK">
    <mxGraphModel dx="1221" dy="618" grid="1" gridSize="10" guides="1" tooltips="1" connect="1" arrows="1" fold="1" page="1" pageScale="1" pageWidth="1500" pageHeight="1200" math="0" shadow="0">
      <root>
        <mxCell id="0" />
        <mxCell id="1" parent="0" />
        <mxCell id="c-eSHvu0p3WlmvlGktgy-1" value="" style="endArrow=none;html=1;rounded=0;" edge="1" parent="1">
          <mxGeometry width="50" height="50" relative="1" as="geometry">
            <mxPoint x="280" y="120" as="sourcePoint" />
            <mxPoint x="280" y="570" as="targetPoint" />
          </mxGeometry>
        </mxCell>
        <mxCell id="c-eSHvu0p3WlmvlGktgy-3" value="" style="endArrow=none;html=1;rounded=0;" edge="1" parent="1">
          <mxGeometry width="50" height="50" relative="1" as="geometry">
            <mxPoint x="800" y="120" as="sourcePoint" />
            <mxPoint x="800" y="570" as="targetPoint" />
          </mxGeometry>
        </mxCell>
        <mxCell id="c-eSHvu0p3WlmvlGktgy-4" value="" style="endArrow=none;html=1;rounded=0;" edge="1" parent="1">
          <mxGeometry width="50" height="50" relative="1" as="geometry">
            <mxPoint x="640" y="120" as="sourcePoint" />
            <mxPoint x="640" y="570" as="targetPoint" />
          </mxGeometry>
        </mxCell>
        <mxCell id="c-eSHvu0p3WlmvlGktgy-5" value="" style="endArrow=none;html=1;rounded=0;" edge="1" parent="1">
          <mxGeometry width="50" height="50" relative="1" as="geometry">
            <mxPoint x="440" y="120" as="sourcePoint" />
            <mxPoint x="440" y="570" as="targetPoint" />
          </mxGeometry>
        </mxCell>
        <mxCell id="c-eSHvu0p3WlmvlGktgy-6" value="Actor" style="shape=umlActor;verticalLabelPosition=bottom;verticalAlign=top;html=1;outlineConnect=0;" vertex="1" parent="1">
          <mxGeometry x="260" y="580" width="30" height="60" as="geometry" />
        </mxCell>
        <mxCell id="c-eSHvu0p3WlmvlGktgy-7" value="Actor" style="shape=umlActor;verticalLabelPosition=bottom;verticalAlign=top;html=1;outlineConnect=0;" vertex="1" parent="1">
          <mxGeometry x="260" y="30" width="30" height="60" as="geometry" />
        </mxCell>
        <mxCell id="c-eSHvu0p3WlmvlGktgy-8" value="System" style="rounded=0;whiteSpace=wrap;html=1;" vertex="1" parent="1">
          <mxGeometry x="410" y="90" width="60" height="30" as="geometry" />
        </mxCell>
        <mxCell id="c-eSHvu0p3WlmvlGktgy-9" value="BadgeDatabase" style="rounded=0;whiteSpace=wrap;html=1;" vertex="1" parent="1">
          <mxGeometry x="590" y="90" width="90" height="30" as="geometry" />
        </mxCell>
        <mxCell id="c-eSHvu0p3WlmvlGktgy-10" value="RewardSystem" style="rounded=0;whiteSpace=wrap;html=1;" vertex="1" parent="1">
          <mxGeometry x="760" y="90" width="90" height="30" as="geometry" />
        </mxCell>
        <mxCell id="c-eSHvu0p3WlmvlGktgy-11" value="System" style="rounded=0;whiteSpace=wrap;html=1;" vertex="1" parent="1">
          <mxGeometry x="410" y="570" width="60" height="30" as="geometry" />
        </mxCell>
        <mxCell id="c-eSHvu0p3WlmvlGktgy-12" value="BadgeDatabase" style="rounded=0;whiteSpace=wrap;html=1;" vertex="1" parent="1">
          <mxGeometry x="590" y="570" width="90" height="30" as="geometry" />
        </mxCell>
        <mxCell id="c-eSHvu0p3WlmvlGktgy-13" value="RewardSystem" style="rounded=0;whiteSpace=wrap;html=1;" vertex="1" parent="1">
          <mxGeometry x="760" y="570" width="90" height="30" as="geometry" />
        </mxCell>
        <mxCell id="c-eSHvu0p3WlmvlGktgy-14" value="" style="endArrow=classic;html=1;rounded=0;" edge="1" parent="1">
          <mxGeometry width="50" height="50" relative="1" as="geometry">
            <mxPoint x="280" y="150" as="sourcePoint" />
            <mxPoint x="440" y="150" as="targetPoint" />
          </mxGeometry>
        </mxCell>
        <mxCell id="c-eSHvu0p3WlmvlGktgy-15" value="" style="endArrow=none;html=1;rounded=0;dashed=1;endFill=0;startArrow=classicThin;startFill=1;" edge="1" parent="1">
          <mxGeometry width="50" height="50" relative="1" as="geometry">
            <mxPoint x="440" y="280" as="sourcePoint" />
            <mxPoint x="640" y="280" as="targetPoint" />
          </mxGeometry>
        </mxCell>
        <mxCell id="c-eSHvu0p3WlmvlGktgy-16" value="" style="endArrow=classic;html=1;rounded=0;" edge="1" parent="1">
          <mxGeometry width="50" height="50" relative="1" as="geometry">
            <mxPoint x="440" y="230" as="sourcePoint" />
            <mxPoint x="640" y="230" as="targetPoint" />
          </mxGeometry>
        </mxCell>
        <mxCell id="c-eSHvu0p3WlmvlGktgy-17" value="" style="endArrow=classic;html=1;rounded=0;" edge="1" parent="1">
          <mxGeometry width="50" height="50" relative="1" as="geometry">
            <mxPoint x="440" y="380" as="sourcePoint" />
            <mxPoint x="640" y="380" as="targetPoint" />
          </mxGeometry>
        </mxCell>
        <mxCell id="c-eSHvu0p3WlmvlGktgy-18" value="" style="endArrow=none;html=1;rounded=0;dashed=1;endFill=0;startArrow=blockThin;startFill=1;" edge="1" parent="1">
          <mxGeometry width="50" height="50" relative="1" as="geometry">
            <mxPoint x="440" y="420" as="sourcePoint" />
            <mxPoint x="640" y="420" as="targetPoint" />
          </mxGeometry>
        </mxCell>
        <mxCell id="c-eSHvu0p3WlmvlGktgy-19" value="" style="endArrow=classic;html=1;rounded=0;" edge="1" parent="1">
          <mxGeometry width="50" height="50" relative="1" as="geometry">
            <mxPoint x="440" y="470" as="sourcePoint" />
            <mxPoint x="800" y="470" as="targetPoint" />
          </mxGeometry>
        </mxCell>
        <mxCell id="c-eSHvu0p3WlmvlGktgy-20" value="" style="endArrow=none;html=1;rounded=0;dashed=1;endFill=0;startArrow=block;startFill=1;" edge="1" parent="1">
          <mxGeometry width="50" height="50" relative="1" as="geometry">
            <mxPoint x="440" y="520" as="sourcePoint" />
            <mxPoint x="800" y="520" as="targetPoint" />
          </mxGeometry>
        </mxCell>
        <mxCell id="c-eSHvu0p3WlmvlGktgy-21" value="" style="endArrow=classic;html=1;rounded=0;" edge="1" parent="1">
          <mxGeometry width="50" height="50" relative="1" as="geometry">
            <mxPoint x="440" y="180" as="sourcePoint" />
            <mxPoint x="440" y="210" as="targetPoint" />
            <Array as="points">
              <mxPoint x="510" y="180" />
              <mxPoint x="510" y="210" />
            </Array>
          </mxGeometry>
        </mxCell>
        <mxCell id="c-eSHvu0p3WlmvlGktgy-23" value="" style="endArrow=classic;html=1;rounded=0;" edge="1" parent="1">
          <mxGeometry width="50" height="50" relative="1" as="geometry">
            <mxPoint x="440" y="320" as="sourcePoint" />
            <mxPoint x="440" y="350" as="targetPoint" />
            <Array as="points">
              <mxPoint x="510" y="320" />
              <mxPoint x="510" y="350" />
            </Array>
          </mxGeometry>
        </mxCell>
        <mxCell id="c-eSHvu0p3WlmvlGktgy-26" value="" style="endArrow=classic;html=1;rounded=0;" edge="1" parent="1">
          <mxGeometry width="50" height="50" relative="1" as="geometry">
            <mxPoint x="440" y="550.6666870117188" as="sourcePoint" />
            <mxPoint x="280" y="550" as="targetPoint" />
          </mxGeometry>
        </mxCell>
        <mxCell id="c-eSHvu0p3WlmvlGktgy-27" value="Complete Challenges" style="text;html=1;align=center;verticalAlign=middle;resizable=0;points=[];autosize=1;strokeColor=none;fillColor=none;" vertex="1" parent="1">
          <mxGeometry x="280" y="120" width="140" height="30" as="geometry" />
        </mxCell>
        <mxCell id="c-eSHvu0p3WlmvlGktgy-28" value="Process Challenge Completion" style="text;html=1;align=center;verticalAlign=middle;resizable=0;points=[];autosize=1;strokeColor=none;fillColor=none;" vertex="1" parent="1">
          <mxGeometry x="440" y="150" width="190" height="30" as="geometry" />
        </mxCell>
        <mxCell id="c-eSHvu0p3WlmvlGktgy-29" value="Check Eligibility for Achievements" style="text;html=1;align=center;verticalAlign=middle;resizable=0;points=[];autosize=1;strokeColor=none;fillColor=none;" vertex="1" parent="1">
          <mxGeometry x="435" y="208" width="200" height="30" as="geometry" />
        </mxCell>
        <mxCell id="c-eSHvu0p3WlmvlGktgy-30" value="Return Achievement Status" style="text;html=1;align=center;verticalAlign=middle;resizable=0;points=[];autosize=1;strokeColor=none;fillColor=none;" vertex="1" parent="1">
          <mxGeometry x="440" y="260" width="170" height="30" as="geometry" />
        </mxCell>
        <mxCell id="c-eSHvu0p3WlmvlGktgy-31" value="Process Achievement if Eligible" style="text;html=1;align=center;verticalAlign=middle;resizable=0;points=[];autosize=1;strokeColor=none;fillColor=none;" vertex="1" parent="1">
          <mxGeometry x="430" y="298" width="190" height="30" as="geometry" />
        </mxCell>
        <mxCell id="c-eSHvu0p3WlmvlGktgy-32" value="Collect Badges" style="text;html=1;align=center;verticalAlign=middle;resizable=0;points=[];autosize=1;strokeColor=none;fillColor=none;" vertex="1" parent="1">
          <mxGeometry x="435" y="358" width="100" height="30" as="geometry" />
        </mxCell>
        <mxCell id="c-eSHvu0p3WlmvlGktgy-33" value="Return Badge Status" style="text;html=1;align=center;verticalAlign=middle;resizable=0;points=[];autosize=1;strokeColor=none;fillColor=none;" vertex="1" parent="1">
          <mxGeometry x="490" y="398" width="130" height="30" as="geometry" />
        </mxCell>
        <mxCell id="c-eSHvu0p3WlmvlGktgy-34" value="Check Conditions for Unlocking Reward" style="text;html=1;align=center;verticalAlign=middle;resizable=0;points=[];autosize=1;strokeColor=none;fillColor=none;" vertex="1" parent="1">
          <mxGeometry x="440" y="440" width="240" height="30" as="geometry" />
        </mxCell>
        <mxCell id="c-eSHvu0p3WlmvlGktgy-35" value="Return Reward Status" style="text;html=1;align=center;verticalAlign=middle;resizable=0;points=[];autosize=1;strokeColor=none;fillColor=none;" vertex="1" parent="1">
          <mxGeometry x="440" y="488" width="140" height="30" as="geometry" />
        </mxCell>
        <mxCell id="c-eSHvu0p3WlmvlGktgy-38" value="Unlock Rewards if Eligible" style="text;html=1;align=center;verticalAlign=middle;resizable=0;points=[];autosize=1;strokeColor=none;fillColor=none;" vertex="1" parent="1">
          <mxGeometry x="275" y="518" width="160" height="30" as="geometry" />
        </mxCell>
      </root>
    </mxGraphModel>
  </diagram>
</mxfile>
